<?xml version="1.0" encoding="UTF-8" standalone="no"?>
<!-- Generator: Adobe Illustrator 19.1.0, SVG Export Plug-In . SVG Version: 6.00 Build 0)  -->

<svg
   xmlns:dc="http://purl.org/dc/elements/1.1/"
   xmlns:cc="http://creativecommons.org/ns#"
   xmlns:rdf="http://www.w3.org/1999/02/22-rdf-syntax-ns#"
   xmlns:svg="http://www.w3.org/2000/svg"
   xmlns="http://www.w3.org/2000/svg"
   xmlns:sodipodi="http://sodipodi.sourceforge.net/DTD/sodipodi-0.dtd"
   xmlns:inkscape="http://www.inkscape.org/namespaces/inkscape"
   version="1.1"
   id="Layer_1"
   x="0px"
   y="0px"
   viewBox="0 0 250 250"
   style="enable-background:new 0 0 250 250;"
   xml:space="preserve"
   sodipodi:docname="dynamic.svg"
   inkscape:version="0.92.1 r15371"
   inkscape:export-filename="C:\Users\Miguel\Documents\0 Versiones\2 Proyectos\pysd\translator_xmile\Windows-app\dynamic.png"
   inkscape:export-xdpi="106.053"
   inkscape:export-ydpi="106.053"><metadata
     id="metadata33"><rdf:RDF><cc:Work
         rdf:about=""><dc:format>image/svg+xml</dc:format><dc:type
           rdf:resource="http://purl.org/dc/dcmitype/StillImage" /><dc:title></dc:title></cc:Work></rdf:RDF></metadata><defs
     id="defs31"><marker
       inkscape:stockid="Arrow1Send"
       orient="auto"
       refY="0.0"
       refX="0.0"
       id="marker7473"
       style="overflow:visible;"
       inkscape:isstock="true"><path
         id="path7471"
         d="M 0.0,0.0 L 5.0,-5.0 L -12.5,0.0 L 5.0,5.0 L 0.0,0.0 z "
         style="fill-rule:evenodd;stroke:#552200;stroke-width:1pt;stroke-opacity:1;fill:#552200;fill-opacity:1"
         transform="scale(0.2) rotate(180) translate(6,0)" /></marker><marker
       inkscape:stockid="Arrow1Send"
       orient="auto"
       refY="0.0"
       refX="0.0"
       id="Arrow1Send"
       style="overflow:visible;"
       inkscape:isstock="true"><path
         id="path4525"
         d="M 0.0,0.0 L 5.0,-5.0 L -12.5,0.0 L 5.0,5.0 L 0.0,0.0 z "
         style="fill-rule:evenodd;stroke:#68b245;stroke-width:1pt;stroke-opacity:1;fill:#68b245;fill-opacity:1"
         transform="scale(0.2) rotate(180) translate(6,0)" /></marker><marker
       inkscape:stockid="Arrow1Send"
       orient="auto"
       refY="0.0"
       refX="0.0"
       id="marker5660"
       style="overflow:visible;"
       inkscape:isstock="true"><path
         id="path5658"
         d="M 0.0,0.0 L 5.0,-5.0 L -12.5,0.0 L 5.0,5.0 L 0.0,0.0 z "
         style="fill-rule:evenodd;stroke:#0000ff;stroke-width:1pt;stroke-opacity:1;fill:#0000ff;fill-opacity:1"
         transform="scale(0.2) rotate(180) translate(6,0)" /></marker><marker
       inkscape:isstock="true"
       style="overflow:visible"
       id="marker5602"
       refX="0.0"
       refY="0.0"
       orient="auto"
       inkscape:stockid="Arrow1Sstart"><path
         transform="scale(0.2) translate(6,0)"
         style="fill-rule:evenodd;stroke:#68b245;stroke-width:1pt;stroke-opacity:1;fill:#68b245;fill-opacity:1"
         d="M 0.0,0.0 L 5.0,-5.0 L -12.5,0.0 L 5.0,5.0 L 0.0,0.0 z "
         id="path5600" /></marker><marker
       inkscape:stockid="Arrow1Lend"
       orient="auto"
       refY="0.0"
       refX="0.0"
       id="Arrow1Lend"
       style="overflow:visible;"
       inkscape:isstock="true"><path
         id="path4513"
         d="M 0.0,0.0 L 5.0,-5.0 L -12.5,0.0 L 5.0,5.0 L 0.0,0.0 z "
         style="fill-rule:evenodd;stroke:#68b245;stroke-width:1pt;stroke-opacity:1;fill:#68b245;fill-opacity:1"
         transform="scale(0.8) rotate(180) translate(12.5,0)" /></marker><marker
       inkscape:stockid="Arrow1Mend"
       orient="auto"
       refY="0.0"
       refX="0.0"
       id="marker4852"
       style="overflow:visible;"
       inkscape:isstock="true"><path
         id="path4850"
         d="M 0.0,0.0 L 5.0,-5.0 L -12.5,0.0 L 5.0,5.0 L 0.0,0.0 z "
         style="fill-rule:evenodd;stroke:#68b245;stroke-width:1pt;stroke-opacity:1;fill:#68b245;fill-opacity:1"
         transform="scale(0.4) rotate(180) translate(10,0)" /></marker><marker
       inkscape:stockid="Arrow2Mend"
       orient="auto"
       refY="0.0"
       refX="0.0"
       id="Arrow2Mend"
       style="overflow:visible;"
       inkscape:isstock="true"><path
         id="path4537"
         style="fill-rule:evenodd;stroke-width:0.625;stroke-linejoin:round;stroke:#68b245;stroke-opacity:1;fill:#68b245;fill-opacity:1"
         d="M 8.7185878,4.0337352 L -2.2072895,0.016013256 L 8.7185884,-4.0017078 C 6.9730900,-1.6296469 6.9831476,1.6157441 8.7185878,4.0337352 z "
         transform="scale(0.6) rotate(180) translate(0,0)" /></marker><marker
       inkscape:stockid="Arrow1Mend"
       orient="auto"
       refY="0.0"
       refX="0.0"
       id="Arrow1Mend"
       style="overflow:visible;"
       inkscape:isstock="true"><path
         id="path4519"
         d="M 0.0,0.0 L 5.0,-5.0 L -12.5,0.0 L 5.0,5.0 L 0.0,0.0 z "
         style="fill-rule:evenodd;stroke:#68b245;stroke-width:1pt;stroke-opacity:1;fill:#68b245;fill-opacity:1"
         transform="scale(0.4) rotate(180) translate(10,0)" /></marker><marker
       inkscape:stockid="Arrow1Lstart"
       orient="auto"
       refY="0.0"
       refX="0.0"
       id="Arrow1Lstart"
       style="overflow:visible"
       inkscape:isstock="true"><path
         id="path4510"
         d="M 0.0,0.0 L 5.0,-5.0 L -12.5,0.0 L 5.0,5.0 L 0.0,0.0 z "
         style="fill-rule:evenodd;stroke:#68b245;stroke-width:1pt;stroke-opacity:1;fill:#68b245;fill-opacity:1"
         transform="scale(0.8) translate(12.5,0)" /></marker></defs><sodipodi:namedview
     pagecolor="#ffffff"
     bordercolor="#666666"
     borderopacity="1"
     objecttolerance="10"
     gridtolerance="10"
     guidetolerance="10"
     inkscape:pageopacity="0"
     inkscape:pageshadow="2"
     inkscape:window-width="1920"
     inkscape:window-height="1057"
     id="namedview29"
     showgrid="false"
     showguides="true"
     inkscape:guide-bbox="true"
     inkscape:zoom="2.6700352"
     inkscape:cx="31.879181"
     inkscape:cy="139.44652"
     inkscape:window-x="-8"
     inkscape:window-y="-8"
     inkscape:window-maximized="1"
     inkscape:current-layer="Layer_1" /><style
     type="text/css"
     id="style2">
	.st0{fill:#DAF4CC;}
	.st1{fill:#6AAF4E;stroke:#424242;stroke-width:1.779;stroke-miterlimit:10;}
	.st2{fill:#FFFFFF;stroke:#424242;stroke-width:1.779;stroke-miterlimit:10;}
	.st3{fill:#424242;}
	.st4{fill:#FFFFFF;stroke:#424242;stroke-width:1.7265;stroke-miterlimit:10;}
	.st5{fill:none;stroke:#424242;stroke-width:2;stroke-miterlimit:10;}
	.st6{fill:#FFFFFF;stroke:#424242;stroke-width:2;stroke-miterlimit:10;}
	.st7{fill:#87D05F;}
	.st8{fill:#67B145;}
	.st9{fill:none;stroke:#424242;stroke-width:7;stroke-miterlimit:10;}
	.st10{fill:#FFFFFF;}
	.st11{fill:#6AAF4E;stroke:#6AAF4E;stroke-miterlimit:10;}
	.st12{fill:#424242;stroke:#424242;stroke-miterlimit:10;}
	.st13{fill:#6AAF4E;}
	.st14{fill:none;stroke:#6AAF4E;stroke-width:5;stroke-miterlimit:10;}
	.st15{fill:#FFFFFF;stroke:#6AAF4E;stroke-width:5;stroke-miterlimit:10;}
	.st16{fill:#68B245;}
	.st17{fill:none;stroke:#68B245;stroke-width:5;stroke-miterlimit:10;}
	.st18{fill:none;stroke:#6AAF4E;stroke-width:5;stroke-linecap:square;stroke-linejoin:round;stroke-miterlimit:10;}
	.st19{display:none;}
	.st20{display:inline;fill:none;stroke:#6AAF4E;stroke-width:4.1715;stroke-miterlimit:10;}
	.st21{display:inline;fill:none;stroke:#6AAF4E;stroke-width:4;stroke-miterlimit:10;}
	.st22{display:inline;fill:#6AAF4E;}
	.st23{fill:none;stroke:#6AAF4E;stroke-width:4.2239;stroke-miterlimit:10;}
	.st24{fill:#4BA647;}
</style><g
     id="g6"><path
       style="fill:none;stroke:#552200;stroke-width:5;stroke-miterlimit:10;marker-end:url(#marker7473)"
       d="M 53.827639,155.92461 C 69.590139,176.74961 101.7,212.6 125,225.7 c 23.3,-13.1 58.43108,-48.57587 74.20608,-69.40087"
       id="path5076"
       inkscape:connector-curvature="0"
       sodipodi:nodetypes="ccc" /><path
       style="fill:none;stroke:#0000ff;stroke-width:5;stroke-miterlimit:10;marker-end:url(#marker5660)"
       d="m 204.44945,148.8086 c 18.02216,-16.78455 14.81562,-33.63828 15.74677,-49.28502 1,-5.1 0.004,-18.72358 0.004,-26.22358 V 24.5 H 125 29.8 v 48.8 c 0,7.4 -0.996215,21.023581 0.0038,26.223581 -0.142431,15.169869 3.017975,28.460019 18.780478,49.285019"
       id="path4"
       inkscape:connector-curvature="0"
       sodipodi:nodetypes="ccscccscc" /></g><g
     class="st19"
     id="g16"><polygon
       class="st20"
       points="105.9,108.7 88.5,177.9 108.7,162.2 115.3,189 134.7,117.4  "
       id="polygon8" /><polygon
       class="st20"
       points="145.5,105.6 162.9,174.7 142.7,159.1 136.1,185.9 116.7,114.3  "
       id="polygon10" /><polygon
       class="st21"
       points="125,42.8 134.6,49 146.1,49 150.9,59.8 160.5,66.2 158.9,77.6 163.6,88.1 156.1,96.8 154.5,108.1    143.5,111.4 136,120 125,116.8 114,120 106.5,111.4 95.5,108.2 93.9,96.8 86.4,88.1 91.1,77.7 89.5,66.4 99.1,59.8 103.9,49    115.4,49  "
       id="polygon12" /><circle
       class="st22"
       cx="125"
       cy="82.1"
       r="27.1"
       id="circle14" /></g><g
     id="g26"
     transform="translate(1.4981076,3.3707421)"><g
       id="g20"
       transform="matrix(0.59588215,0.34298357,-0.34298357,0.59588215,124.02667,22.699679)"><path
         class="st24"
         d="m 159.5,106.4 c -8.4,-37 -28.2,-49.1 -30.3,-53.8 -2.3,-3.3 -4.7,-9.1 -4.7,-9.1 v 0.1 c -0.1,-0.2 -0.1,-0.4 -0.2,-0.5 -0.2,3.3 -0.4,4.5 -3.5,7.8 -4.8,3.7 -29.5,24.4 -31.5,66.4 -1.9,39.2 28.4,62.6 32.4,65.5 0,0 1.1,0.6 1.1,0.6 0.3,0.2 -0.4,-79 1.8,-79 1.2,0 2.7,64.6 3.4,78.5 -0.1,0.3 4.7,-1.7 8.5,-5.7 10.2,-9.2 29.5,-32.6 23,-70.8 z m -22.9,70.8 v 0 0 c 0,0 0,0.1 0,0 0,0.1 -0.1,0.1 0,0 z"
         id="path18"
         inkscape:connector-curvature="0"
         style="fill:#668000" /></g><g
       id="g24"
       transform="matrix(0.59588215,0.34298357,-0.34298357,0.59588215,124.02667,22.699679)"><path
         class="st24"
         d="m 128.1,182.9 c -2,1.1 -3.4,1.1 -5.2,0.5 l 1.5,17.9 3.7,1.2 c -0.1,0 0.2,-11.1 0,-19.6 z"
         id="path22"
         inkscape:connector-curvature="0"
         style="fill:#222b00" /></g><path
       style="fill:#2b1100;stroke-width:1.14991868"
       d="m 105.44829,115.39299 c 2.39989,-15.3173 10.98305,-29.114212 21.89403,-35.193328 l 4.51232,-2.514072 -2.86437,-7.703402 c -2.16309,-5.820178 -2.65905,-8.775491 -2.02552,-12.087645 0.86694,-4.532382 6.45472,-11.193879 10.79797,-12.872857 2.20678,-0.853061 2.22188,-1.436271 0.17944,-6.921028 -2.41536,-6.486225 -2.31415,-11.778966 0.35095,-18.35174 l 1.68316,-4.151627 -3.46874,2.200769 c -6.50447,4.126811 -15.48271,12.676166 -20.54763,19.566069 -9.13779,12.430332 -13.77942,26.01075 -14.0383,41.073112 -0.0814,4.734958 -0.79167,8.600363 -1.6388,8.918344 -0.822349,0.308677 -3.109309,-1.081118 -5.082165,-3.088426 -3.027877,-3.080764 -3.548188,-3.268945 -3.337988,-1.207253 0.248126,2.433865 -2.814949,4.701136 -3.579055,2.649206 -0.808234,-2.170421 -2.032767,-0.371133 -2.24878,3.304315 -0.223497,3.802852 -3.826883,6.701642 -4.865049,3.913761 C 80.059678,89.946177 65.643747,77.295378 59.136402,73.591661 51.540972,69.268113 40.214802,65.601122 31.406119,64.613223 21.355722,63.486069 1.434464,65.014078 9.06139,66.327117 c 4.652015,0.800891 11.264717,7.51658 13.97808,14.195783 l 2.577461,6.344654 4.078427,-0.823738 c 5.318115,-1.074117 12.565652,0.719915 16.08129,3.980719 1.653177,1.533337 3.90871,5.571859 5.514933,9.874461 2.488562,6.666354 2.907527,7.209034 4.969106,6.437984 3.507624,-1.31163 15.60187,-1.33419 20.441218,-0.0378 7.310662,1.95851 16.598424,6.96481 22.070125,11.89628 2.85395,2.57219 5.26419,4.64979 5.35609,4.61691 0.0918,-0.0333 0.68597,-3.37161 1.32017,-7.41941 z"
       id="path7461"
       inkscape:connector-curvature="0" /></g><text
     xml:space="preserve"
     style="font-style:normal;font-weight:normal;font-size:40px;line-height:125%;font-family:sans-serif;letter-spacing:0px;word-spacing:0px;fill:#000000;fill-opacity:1;stroke:none;stroke-width:1px;stroke-linecap:butt;stroke-linejoin:miter;stroke-opacity:1"
     x="-82.770447"
     y="102.81093"
     id="text7543"><tspan
       sodipodi:role="line"
       id="tspan7541"
       x="-82.770447"
       y="139.30414" /></text>
</svg>