<?xml version="1.0" encoding="UTF-8" standalone="no"?>
<!-- Created with Inkscape (http://www.inkscape.org/) -->

<svg
   version="1.1"
   id="svg384"
   width="407"
   height="213"
   viewBox="0 0 407 213"
   sodipodi:docname="CLD_example.svg"
   inkscape:version="1.1.1 (3bf5ae0d25, 2021-09-20)"
   inkscape:export-filename="/home/roger/Development/pysd/paper/CLD_example_600ppp.png"
   inkscape:export-xdpi="600"
   inkscape:export-ydpi="600"
   xmlns:inkscape="http://www.inkscape.org/namespaces/inkscape"
   xmlns:sodipodi="http://sodipodi.sourceforge.net/DTD/sodipodi-0.dtd"
   xmlns="http://www.w3.org/2000/svg"
   xmlns:svg="http://www.w3.org/2000/svg">
  <defs
     id="defs388">
    <marker
       id="ExperimentalArrow"
       refX="5.0"
       refY="3.0"
       orient="auto-start-reverse"
       inkscape:stockid="ExperimentalArrow"
       inkscape:isstock="true">
      <path
         style="fill:context-stroke"
         d="m 10,3 -10,3 0,-6 z"
         id="path120501" />
    </marker>
    <marker
       style="overflow:visible"
       id="TriangleOutL"
       refX="0.0"
       refY="0.0"
       orient="auto"
       inkscape:stockid="TriangleOutL"
       inkscape:isstock="true">
      <path
         transform="scale(0.8)"
         style="fill-rule:evenodd;fill:context-stroke;stroke:context-stroke;stroke-width:1.0pt"
         d="M 5.77,0.0 L -2.88,5.0 L -2.88,-5.0 L 5.77,0.0 z "
         id="path120390" />
    </marker>
    <marker
       style="overflow:visible;"
       id="Arrow2Mend"
       refX="0.0"
       refY="0.0"
       orient="auto"
       inkscape:stockid="Arrow2Mend"
       inkscape:isstock="true">
      <path
         transform="scale(0.6) rotate(180) translate(0,0)"
         d="M 8.7185878,4.0337352 L -2.2072895,0.016013256 L 8.7185884,-4.0017078 C 6.9730900,-1.6296469 6.9831476,1.6157441 8.7185878,4.0337352 z "
         style="stroke:context-stroke;fill-rule:evenodd;fill:context-stroke;stroke-width:0.62500000;stroke-linejoin:round;"
         id="path120275" />
    </marker>
    <marker
       style="overflow:visible"
       id="Arrow1Lstart"
       refX="0.0"
       refY="0.0"
       orient="auto"
       inkscape:stockid="Arrow1Lstart"
       inkscape:isstock="true">
      <path
         transform="scale(0.8) translate(12.5,0)"
         style="fill-rule:evenodd;fill:context-stroke;stroke:context-stroke;stroke-width:1.0pt"
         d="M 0.0,0.0 L 5.0,-5.0 L -12.5,0.0 L 5.0,5.0 L 0.0,0.0 z "
         id="path120248" />
    </marker>
    <marker
       style="overflow:visible;"
       id="Arrow1Lend"
       refX="0.0"
       refY="0.0"
       orient="auto"
       inkscape:stockid="Arrow1Lend"
       inkscape:isstock="true">
      <path
         transform="scale(0.8) rotate(180) translate(12.5,0)"
         style="fill-rule:evenodd;fill:context-stroke;stroke:context-stroke;stroke-width:1.0pt;"
         d="M 0.0,0.0 L 5.0,-5.0 L -12.5,0.0 L 5.0,5.0 L 0.0,0.0 z "
         id="path120251" />
    </marker>
    <marker
       id="ExperimentalArrow-7"
       refX="5"
       refY="3"
       orient="auto-start-reverse"
       inkscape:stockid="ExperimentalArrow"
       inkscape:isstock="true">
      <path
         style="fill:context-stroke"
         d="M 10,3 0,6 V 0 Z"
         id="path120501-9" />
    </marker>
    <marker
       id="ExperimentalArrow-7-0"
       refX="5"
       refY="3"
       orient="auto-start-reverse"
       inkscape:stockid="ExperimentalArrow"
       inkscape:isstock="true">
      <path
         style="fill:context-stroke"
         d="M 10,3 0,6 V 0 Z"
         id="path120501-9-2" />
    </marker>
    <marker
       id="ExperimentalArrow-7-0-7"
       refX="5"
       refY="3"
       orient="auto-start-reverse"
       inkscape:stockid="ExperimentalArrow"
       inkscape:isstock="true">
      <path
         style="fill:context-stroke"
         d="M 10,3 0,6 V 0 Z"
         id="path120501-9-2-5" />
    </marker>
    <marker
       id="ExperimentalArrow-7-0-7-2"
       refX="5"
       refY="3"
       orient="auto-start-reverse"
       inkscape:stockid="ExperimentalArrow"
       inkscape:isstock="true">
      <path
         style="fill:context-stroke"
         d="M 10,3 0,6 V 0 Z"
         id="path120501-9-2-5-2" />
    </marker>
    <marker
       id="ExperimentalArrow-7-9"
       refX="5"
       refY="3"
       orient="auto-start-reverse"
       inkscape:stockid="ExperimentalArrow"
       inkscape:isstock="true">
      <path
         style="fill:context-stroke"
         d="M 10,3 0,6 V 0 Z"
         id="path120501-9-7" />
    </marker>
  </defs>
  <sodipodi:namedview
     id="namedview386"
     pagecolor="#ffffff"
     bordercolor="#666666"
     borderopacity="1.0"
     inkscape:pageshadow="2"
     inkscape:pageopacity="0.0"
     inkscape:pagecheckerboard="0"
     showgrid="false"
     inkscape:zoom="2.2220874"
     inkscape:cx="178.21081"
     inkscape:cy="110.70672"
     inkscape:window-width="2544"
     inkscape:window-height="1331"
     inkscape:window-x="8"
     inkscape:window-y="64"
     inkscape:window-maximized="0"
     inkscape:current-layer="g390" />
  <g
     inkscape:groupmode="layer"
     inkscape:label="Image"
     id="g390">
    <path
       style="fill:none;stroke:#000000;stroke-width:1px;stroke-linecap:butt;stroke-linejoin:miter;stroke-opacity:1"
       d="m 45.39342,130.33681 h 126.54786 v 4.0919 H 45.377477 Z"
       id="path3256"
       sodipodi:nodetypes="ccccc" />
    <path
       style="fill:none;stroke:#000000;stroke-width:1px;stroke-linecap:butt;stroke-linejoin:miter;stroke-opacity:1"
       d="m 272.63442,131.02531 74.40462,-0.19989 v 4.0919 l -74.40596,0.007 z"
       id="path3256-6"
       sodipodi:nodetypes="ccccc" />
    <path
       style="fill:#000000;fill-opacity:1;stroke:#000000;stroke-width:1px;stroke-linecap:butt;stroke-linejoin:miter;stroke-opacity:1"
       d="m 192.88667,132.42168 -21.25525,7.18497 v -14.18106 z"
       id="path3508" />
    <path
       style="fill:#000000;fill-opacity:1;stroke:#000000;stroke-width:1px;stroke-linecap:butt;stroke-linejoin:miter;stroke-opacity:1"
       d="m 368.28565,132.42168 -21.25525,7.18497 v -14.18106 z"
       id="path3508-7" />
    <path
       style="fill:none;stroke:#000000;stroke-width:1px;stroke-linecap:butt;stroke-linejoin:miter;stroke-opacity:1"
       d="m 193.66634,112.5302 v 38.73417 h 78.95064 v -38.71163 z"
       id="path3510" />
    <path
       style="fill:none;stroke:#000000;stroke-width:1px;stroke-linecap:butt;stroke-linejoin:miter;stroke-opacity:1"
       d="M 95.495634,124.36931 H 107.32282 L 95.440013,140.41282 H 107.30704 Z"
       id="path3512" />
    <path
       style="fill:none;stroke:#000000;stroke-width:1px;stroke-linecap:butt;stroke-linejoin:miter;stroke-opacity:1"
       d="m 311.91283,124.88591 h 11.82719 l -11.88281,16.04351 h 11.86703 z"
       id="path3512-5" />
    <path
       style="fill:none;stroke:#000000;stroke-width:1px;stroke-linecap:butt;stroke-linejoin:miter;stroke-opacity:1"
       d="m 33.41975,124.25463 c -0.737075,-0.0757 -1.227091,0.28448 -1.483873,0.95243 -0.06526,0.16976 -0.33438,0.21736 -0.38758,0.37857 -0.02272,0.0689 0.03177,0.15235 0,0.21753 -0.138259,0.28369 -0.438814,0.49795 -0.607437,0.75753 -0.113926,0.17538 -0.249475,0.44679 -0.454712,0.57023 -0.677529,0.40753 -2.234302,-0.14872 -2.973024,0.64848 -0.231,0.24928 -0.508954,0.66488 -0.622875,1.03735 -0.02867,0.0937 0.0315,0.20127 0,0.2941 -0.04261,0.12554 -0.182597,0.2051 -0.217469,0.33301 -0.114237,0.41902 -0.11907,1.52098 0.108258,1.92762 0.178175,0.31872 0.457931,0.6845 0.549606,1.05866 0.10615,0.43322 -0.149995,0.007 0.107743,0.43781 0.219597,0.3668 0.501188,0.63727 0.745241,0.96867 0.164026,0.22274 0.04142,0.43157 0.203985,0.66014 0.302403,0.42517 0.576327,0.81352 0.920168,1.16998 0.289144,0.29975 0.455029,0.76966 0.748489,1.07273 0.759452,0.78431 1.840027,1.22056 2.730543,1.69471 0.254832,0.13569 1.211983,-0.53718 1.260265,-0.63374 0.03112,-0.0622 -0.01821,-0.1416 0,-0.20877 0.02541,-0.0937 0.287096,-0.31201 0.318698,-0.3414 0.103029,-0.0958 0.282293,-0.0268 0.416333,-0.0696 0.502281,-0.16034 1.376445,-0.78535 1.896345,-0.5837 0.33426,0.12965 0.818271,0.44377 1.067955,0.70137 0.680031,0.7016 -0.03297,0.11289 0.332707,0.44044 0.687288,0.61564 1.313589,1.15656 2.13114,1.41167 0.675043,0.21063 1.36003,-0.17924 1.868047,-0.53787 0.16755,-0.11828 0.284308,-0.40464 0.472661,-0.53961 0.08022,-0.0575 0.193785,-0.052 0.276529,-0.10575 0.241133,-0.15674 0.234933,-0.34819 0.420942,-0.51702 0.214772,-0.19495 0.71926,-0.28108 0.824299,-0.59634 0.112242,-0.33687 0.352121,-0.72343 0.425623,-1.08386 0.139423,-0.6837 0.22202,-1.44687 0.435991,-2.10237 0.0298,-0.0913 0.187909,-0.10178 0.212393,-0.19463 0.05786,-0.21944 -0.0485,-0.48726 0,-0.7092 0.14248,-0.652 0.372387,-1.50333 0.21953,-2.20204 -0.05664,-0.2589 -1.169044,-2.6883 -1.288441,-2.8077 -0.201861,-0.20186 -0.448798,-0.3429 -0.662798,-0.55718 -0.10807,-0.1082 -0.148139,-0.3067 -0.202693,-0.42705 -0.115871,-0.25561 -1.03149,-0.87788 -1.280716,-0.96808 -0.456345,-0.16517 -0.943221,-0.191 -1.428453,-0.31166 -0.362667,-0.0902 -0.857131,0.13357 -1.204099,0 -0.279373,-0.10755 -0.618644,-0.19877 -0.934255,-0.31074 -0.337983,-0.1199 0.185428,0.18488 -0.284354,0 -0.662997,-0.26092 -1.174069,-0.7729 -1.921521,-0.97654 -0.296065,-0.0807 -0.585466,-0.14732 -0.870716,-0.28994 -0.325917,-0.16296 -1.13276,0 -1.506039,0 -0.02041,0 -0.199207,-0.0148 -0.208548,0 -0.06656,0.10573 -0.102592,0.22785 -0.153888,0.34178 z"
       id="path3547" />
    <path
       style="fill:none;stroke:#000000;stroke-width:1px;stroke-linecap:butt;stroke-linejoin:miter;stroke-opacity:1"
       d="m 375.52561,124.6555 c -0.73708,-0.0757 -1.22709,0.28448 -1.48388,0.95243 -0.0652,0.16976 -0.33438,0.21736 -0.38757,0.37857 -0.0227,0.0689 0.0318,0.15235 0,0.21753 -0.13826,0.28369 -0.43882,0.49795 -0.60744,0.75753 -0.11393,0.17538 -0.24948,0.44679 -0.45471,0.57023 -0.67753,0.40753 -2.23431,-0.14872 -2.97303,0.64848 -0.231,0.24928 -0.50895,0.66488 -0.62287,1.03735 -0.0287,0.0937 0.0315,0.20127 0,0.2941 -0.0426,0.12554 -0.1826,0.2051 -0.21747,0.33301 -0.11424,0.41902 -0.11907,1.52098 0.10826,1.92762 0.17817,0.31872 0.45793,0.6845 0.5496,1.05866 0.10615,0.43322 -0.14999,0.007 0.10775,0.43781 0.21959,0.3668 0.50118,0.63727 0.74524,0.96867 0.16402,0.22274 0.0414,0.43157 0.20398,0.66014 0.3024,0.42517 0.57633,0.81352 0.92017,1.16998 0.28914,0.29975 0.45503,0.76966 0.74849,1.07273 0.75945,0.78431 1.84002,1.22056 2.73054,1.69471 0.25483,0.13569 1.21198,-0.53718 1.26027,-0.63374 0.0311,-0.0622 -0.0182,-0.1416 0,-0.20877 0.0254,-0.0937 0.28709,-0.31201 0.31869,-0.3414 0.10303,-0.0958 0.2823,-0.0268 0.41634,-0.0696 0.50228,-0.16034 1.37644,-0.78535 1.89634,-0.5837 0.33426,0.12965 0.81827,0.44377 1.06796,0.70137 0.68003,0.7016 -0.033,0.11289 0.3327,0.44044 0.68729,0.61564 1.31359,1.15656 2.13114,1.41167 0.67505,0.21063 1.36003,-0.17924 1.86805,-0.53787 0.16755,-0.11828 0.28431,-0.40464 0.47266,-0.53961 0.0802,-0.0575 0.19379,-0.052 0.27653,-0.10575 0.24113,-0.15674 0.23493,-0.34819 0.42094,-0.51702 0.21477,-0.19495 0.71926,-0.28108 0.8243,-0.59634 0.11224,-0.33687 0.35212,-0.72343 0.42562,-1.08386 0.13943,-0.6837 0.22202,-1.44687 0.436,-2.10237 0.0298,-0.0913 0.1879,-0.10178 0.21239,-0.19463 0.0579,-0.21944 -0.0485,-0.48726 0,-0.7092 0.14248,-0.652 0.37239,-1.50333 0.21953,-2.20204 -0.0566,-0.2589 -1.16905,-2.6883 -1.28844,-2.8077 -0.20186,-0.20186 -0.4488,-0.3429 -0.6628,-0.55718 -0.10807,-0.1082 -0.14814,-0.3067 -0.20269,-0.42705 -0.11587,-0.25561 -1.03149,-0.87788 -1.28072,-0.96808 -0.45634,-0.16517 -0.94322,-0.191 -1.42845,-0.31166 -0.36267,-0.0902 -0.85713,0.13357 -1.2041,0 -0.27937,-0.10755 -0.61865,-0.19877 -0.93426,-0.31074 -0.33798,-0.1199 0.18543,0.18488 -0.28435,0 -0.663,-0.26092 -1.17407,-0.7729 -1.92152,-0.97654 -0.29607,-0.0807 -0.58547,-0.14732 -0.87072,-0.28994 -0.32591,-0.16296 -1.13276,0 -1.50604,0 -0.0204,0 -0.1992,-0.0148 -0.20854,0 -0.0666,0.10573 -0.1026,0.22785 -0.15389,0.34178 z"
       id="path3547-3" />
    <path
       style="fill:none;stroke:#000000;stroke-width:1px;stroke-linecap:butt;stroke-linejoin:miter;stroke-opacity:1"
       d="m 182.27257,74.529345 v 0"
       id="path5445"
       sodipodi:nodetypes="cc" />
    <text
       xml:space="preserve"
       style="font-style:normal;font-weight:normal;font-size:12px;line-height:1.25;font-family:sans-serif;fill:#000000;fill-opacity:1;stroke:none"
       x="216.26579"
       y="135.2164"
       id="text17223"><tspan
         sodipodi:role="line"
         id="tspan17221"
         x="216.26579"
         y="135.2164"
         style="font-size:12px">Stock</tspan></text>
    <text
       xml:space="preserve"
       style="font-style:normal;font-weight:normal;font-size:12px;line-height:1.25;font-family:sans-serif;fill:#000000;fill-opacity:1;stroke:none"
       x="293.87772"
       y="151.40506"
       id="text17223-3"><tspan
         sodipodi:role="line"
         id="tspan17221-5"
         x="293.87772"
         y="151.40506"
         style="font-size:12px">Outflow</tspan></text>
    <text
       xml:space="preserve"
       style="font-style:normal;font-weight:normal;font-size:12px;line-height:1.25;font-family:sans-serif;fill:#000000;fill-opacity:1;stroke:none"
       x="240.7106"
       y="34.24902"
       id="text17223-3-9"><tspan
         sodipodi:role="line"
         id="tspan17221-5-1"
         x="240.7106"
         y="34.24902"
         style="font-size:12px">Parameter</tspan></text>
    <text
       xml:space="preserve"
       style="font-style:normal;font-weight:normal;font-size:12px;line-height:1.25;font-family:sans-serif;fill:#000000;fill-opacity:1;stroke:none"
       x="136.61993"
       y="44.592293"
       id="text17223-3-2"><tspan
         sodipodi:role="line"
         id="tspan17221-5-7"
         x="136.61993"
         y="44.592293"
         style="font-size:12px">Variable</tspan></text>
    <text
       xml:space="preserve"
       style="font-style:normal;font-weight:normal;font-size:12px;line-height:1.25;font-family:sans-serif;fill:#000000;fill-opacity:1;stroke:none"
       x="81.655464"
       y="151.47435"
       id="text17223-3-0"><tspan
         sodipodi:role="line"
         id="tspan17221-5-9"
         x="81.655464"
         y="151.47435"
         style="font-size:12px">Inflow</tspan></text>
    <text
       xml:space="preserve"
       style="font-style:normal;font-weight:normal;font-size:13.3333px;line-height:1.25;font-family:sans-serif;fill:#000000;fill-opacity:1;stroke:none"
       x="57.231438"
       y="194.93492"
       id="text17223-3-3"><tspan
         sodipodi:role="line"
         id="tspan17221-5-6"
         x="57.231438"
         y="194.93492"
         style="font-size:13.3333px">Lookup Table</tspan></text>
    <text
       xml:space="preserve"
       style="font-style:normal;font-weight:normal;font-size:13.3333px;line-height:1.25;font-family:sans-serif;fill:#ff0000;fill-opacity:1;stroke:none"
       x="114.39243"
       y="106.63231"
       id="text17223-3-3-0"><tspan
         sodipodi:role="line"
         id="tspan17221-5-6-6"
         x="114.39243"
         y="106.63231"
         style="font-size:13.3333px;fill:#ff0000">Feedback Loop</tspan></text>
    <text
       xml:space="preserve"
       style="font-style:normal;font-weight:normal;font-size:12px;line-height:1.25;font-family:sans-serif;fill:#000000;fill-opacity:1;stroke:none"
       x="314.00977"
       y="75.39814"
       id="text17223-3-6"><tspan
         sodipodi:role="line"
         id="tspan17221-5-2"
         x="314.00977"
         y="75.39814"
         style="font-size:12px;text-align:center;text-anchor:middle">External</tspan><tspan
         sodipodi:role="line"
         x="314.00977"
         y="90.39814"
         style="font-size:12px;text-align:center;text-anchor:middle"
         id="tspan45409">Timeseries Data</tspan></text>
    <text
       xml:space="preserve"
       style="font-style:normal;font-weight:normal;font-size:12px;line-height:1.25;font-family:sans-serif;fill:#000000;fill-opacity:1;stroke:none"
       x="183.476"
       y="18.221809"
       id="text100250"><tspan
         sodipodi:role="line"
         id="tspan100248"
         x="183.476"
         y="18.221809"
         style="font-size:12px;fill:#0000ff">+</tspan></text>
    <text
       xml:space="preserve"
       style="font-style:normal;font-weight:normal;font-size:12px;line-height:1.25;font-family:sans-serif;fill:#000000;fill-opacity:1;stroke:none"
       x="189.80251"
       y="66.56707"
       id="text100250-2"><tspan
         sodipodi:role="line"
         id="tspan100248-6"
         x="189.80251"
         y="66.56707"
         style="font-size:12px;fill:#0000ff">+</tspan></text>
    <text
       xml:space="preserve"
       style="font-style:normal;font-weight:normal;font-size:12px;line-height:1.25;font-family:sans-serif;fill:#000000;fill-opacity:1;stroke:none"
       x="107.01463"
       y="112.99321"
       id="text100250-2-1"><tspan
         sodipodi:role="line"
         id="tspan100248-6-8"
         x="107.01463"
         y="112.99321"
         style="font-size:12px;fill:#0000ff">-</tspan></text>
    <path
       style="fill:none;stroke:#0000ff;stroke-width:1.3;stroke-linecap:butt;stroke-linejoin:miter;stroke-miterlimit:4;stroke-dasharray:none;stroke-opacity:1;marker-end:url(#ExperimentalArrow)"
       d="m 235.43101,111.99886 c 0,0 3.40563,-40.562737 -41.64279,-63.104411"
       id="path119609"
       sodipodi:nodetypes="cc" />
    <path
       style="fill:none;stroke:#0000ff;stroke-width:1.3;stroke-linecap:butt;stroke-linejoin:miter;stroke-miterlimit:4;stroke-dasharray:none;stroke-opacity:1;marker-end:url(#ExperimentalArrow-7)"
       d="m 135.35305,48.033195 c 0,0 -48.749151,20.303776 -36.342914,71.959075"
       id="path119609-2"
       sodipodi:nodetypes="cc" />
    <path
       style="fill:none;stroke:#0000ff;stroke-width:1.3;stroke-linecap:butt;stroke-linejoin:miter;stroke-miterlimit:4;stroke-dasharray:none;stroke-opacity:1;marker-end:url(#ExperimentalArrow-7-0)"
       d="m 238.71621,25.588565 c 0,0 -28.99912,-0.902707 -53.04331,5.962045"
       id="path119609-2-3"
       sodipodi:nodetypes="cc" />
    <path
       style="fill:none;stroke:#0000ff;stroke-width:1.3;stroke-linecap:butt;stroke-linejoin:miter;stroke-miterlimit:4;stroke-dasharray:none;stroke-opacity:1;marker-end:url(#ExperimentalArrow-7-0-7)"
       d="m 101.48069,184.31519 c 0,0 -0.17035,-2.73194 -0.17035,-23.98877"
       id="path119609-2-3-9"
       sodipodi:nodetypes="cc" />
    <path
       style="fill:none;stroke:#0000ff;stroke-width:1.3;stroke-linecap:butt;stroke-linejoin:miter;stroke-miterlimit:4;stroke-dasharray:none;stroke-opacity:1;marker-end:url(#ExperimentalArrow-7-0-7-2)"
       d="m 317.30802,94.200768 c 0,0 -0.17035,2.731938 -0.17035,23.988772"
       id="path119609-2-3-9-8"
       sodipodi:nodetypes="cc" />
    <path
       style="fill:none;stroke:#d30000;stroke-width:1px;stroke-linecap:butt;stroke-linejoin:miter;stroke-opacity:0.691536;marker-end:url(#ExperimentalArrow)"
       d="m 163.20633,53.424131 c 0,0 -1.97822,-0.05796 -2.96111,0.03309 -1.06726,0.09887 -2.12678,0.297615 -3.16716,0.555317 -0.74458,0.184433 -1.47785,0.421758 -2.19012,0.706516 -0.7993,0.31955 -1.57571,0.699666 -2.32692,1.119995 -0.81457,0.455782 -1.61393,0.947517 -2.35499,1.515053 -0.89205,0.683171 -1.72893,1.443838 -2.49953,2.261547 -0.90766,0.963144 -1.7421,2.001269 -2.48461,3.09679 -0.32514,0.479715 -0.601,0.992776 -0.85652,1.512922 -0.40359,0.821566 -0.78609,1.659333 -1.0645,2.531307 -0.27687,0.867124 -0.43311,1.769364 -0.59604,2.664915 -0.14181,0.779421 -0.26799,1.563754 -0.3314,2.353428 -0.0694,0.86376 -0.0774,1.732889 -0.0529,2.599082 0.0253,0.895191 0.0747,1.7929 0.20649,2.6787 0.13545,0.910487 0.32137,1.818082 0.59845,2.695899 0.25356,0.803303 0.60023,1.576512 0.96791,2.334403 0.45725,0.942515 0.94322,1.877948 1.53508,2.742304 0.76949,1.123758 1.62169,2.204855 2.60242,3.149903 0.80979,0.780332 1.74452,1.424927 2.6787,2.05102 0.82513,0.553008 1.68021,1.068448 2.57494,1.499865 1.03459,0.498854 2.10408,0.943611 3.21113,1.249669 0.91374,0.252615 1.86067,0.380822 2.80385,0.476447 0.96415,0.09775 1.93655,0.105057 2.90562,0.09814 0.86946,-0.0062 1.73928,-0.04939 2.60545,-0.125258 0.9502,-0.08323 1.90484,-0.166778 2.83858,-0.361566 0.97803,-0.204028 1.94994,-0.468351 2.87667,-0.841637 0.7219,-0.290779 1.3978,-0.687801 2.06964,-1.080641 0.91354,-0.534171 1.82401,-1.084012 2.66073,-1.731929 0.64745,-0.501357 1.25091,-1.062248 1.81283,-1.6579 0.64437,-0.683055 1.25112,-1.407983 1.77689,-2.186021 0.49003,-0.72514 0.92794,-1.492066 1.27264,-2.296514 0.58929,-1.375272 1.02676,-2.820696 1.34199,-4.28332 0.23862,-1.107135 0.32122,-2.243774 0.40991,-3.372853 0.10343,-1.316721 0.10751,-2.639458 0.14198,-3.959785 0.0296,-1.134499 0.0753,-2.269485 0.0557,-3.404201 -0.0132,-0.765222 -0.11687,-2.293033 -0.11687,-2.293033"
       id="path124113"
       sodipodi:nodetypes="caaaaaaaaaaaaaaaaaaaaaaaaaaaaaaaaaac" />
  </g>
</svg>
